<?xml version="1.0" encoding="UTF-8" standalone="no"?>
<!-- Created with Inkscape (http://www.inkscape.org/) -->

<svg
   xmlns:osb="http://www.openswatchbook.org/uri/2009/osb"
   xmlns:dc="http://purl.org/dc/elements/1.1/"
   xmlns:cc="http://creativecommons.org/ns#"
   xmlns:rdf="http://www.w3.org/1999/02/22-rdf-syntax-ns#"
   xmlns:svg="http://www.w3.org/2000/svg"
   xmlns="http://www.w3.org/2000/svg"
   xmlns:sodipodi="http://sodipodi.sourceforge.net/DTD/sodipodi-0.dtd"
   xmlns:inkscape="http://www.inkscape.org/namespaces/inkscape"
   width="512"
   height="512"
   id="svg3223"
   version="1.1"
   inkscape:version="0.48.3.1 r9886"
   sodipodi:docname="clip.svg">
  <defs
     id="defs3225">
    <linearGradient
       id="linearGradient4011"
       osb:paint="solid">
      <stop
         style="stop-color:#aaccee;stop-opacity:1;"
         offset="0"
         id="stop4013" />
    </linearGradient>
  </defs>
  <sodipodi:namedview
     id="base"
     pagecolor="#ffffff"
     bordercolor="#666666"
     borderopacity="1.0"
     inkscape:pageopacity="0.0"
     inkscape:pageshadow="2"
     inkscape:zoom="0.49497475"
     inkscape:cx="-39.214973"
     inkscape:cy="394.02562"
     inkscape:document-units="px"
     inkscape:current-layer="layer1"
     showgrid="false"
     inkscape:window-width="1366"
     inkscape:window-height="744"
     inkscape:window-x="0"
     inkscape:window-y="24"
     inkscape:window-maximized="1" />
  <metadata
     id="metadata3228">
    <rdf:RDF>
      <cc:Work
         rdf:about="">
        <dc:format>image/svg+xml</dc:format>
        <dc:type
           rdf:resource="http://purl.org/dc/dcmitype/StillImage" />
        <dc:title />
      </cc:Work>
    </rdf:RDF>
  </metadata>
  <g
     inkscape:label="Layer 1"
     inkscape:groupmode="layer"
     id="layer1"
     transform="translate(0,-540.36218)">
    <path
       transform="translate(0,540.36218)"
       style="fill:#a14708;fill-opacity:0.98039216;fill-rule:nonzero;stroke:#a14708;stroke-width:2;stroke-linecap:round;stroke-linejoin:round;stroke-miterlimit:4;stroke-opacity:0.98173516999999999"
       d="M 518.57142,-0.85714265 514.28571,430.57142 c -0.44024,44.31781 -35.68148,79.63862 -80,80 L 0.70302498,514.10695 M 1.5152288,513.909 0,79.142857 C -0.15446128,34.823126 35.68,-0.8571431 80,-0.8571431 l 438.21428,0"
       id="rect3231"
       inkscape:connector-curvature="0"
       sodipodi:nodetypes="cssccssc" />
    <path
       id="path4085"
       style="fill:none;stroke:#f5edd5;stroke-width:17.21;stroke-linecap:round;stroke-linejoin:round;stroke-miterlimit:4;stroke-opacity:1;stroke-dasharray:none"
       d="m 364.15955,803.2952 c 38.35507,-30.738 40.91208,-70.881 27.19677,-87.9614 -20.72975,-25.816 -62.66822,-30.37956 -107.4183,6.22372 L 145.21667,835.02446 M 368.08724,800.58962 198.45288,948.3747 c -30.70457,26.74972 -81.49848,22.11555 -98.515525,14.09726 -25.17157,-11.86061 -35.56812,-39.06906 -34.26825,-63.34411 1.05641,-19.72893 8.62506,-48.55577 36.072185,-70.35165 L 304.63394,667.65759 c 49.42157,-39.24604 106.66527,-32.9681 128.74881,-12.3798 33.37782,31.11785 34.30782,88.46286 -17.96641,139.75666 l -90.33466,88.64051"
       inkscape:connector-curvature="0" />
  </g>
</svg>
